<?xml version="1.0" encoding="UTF-8" standalone="no"?>
<!-- Created with Inkscape (http://www.inkscape.org/) -->

<svg
   version="1.1"
   id="svg1"
   width="1000"
   height="450"
   viewBox="0 0 1000 450"
   sodipodi:docname="Ctrl All logo purple.svg"
   inkscape:version="1.4.2 (f4327f4, 2025-05-13)"
   xmlns:inkscape="http://www.inkscape.org/namespaces/inkscape"
   xmlns:sodipodi="http://sodipodi.sourceforge.net/DTD/sodipodi-0.dtd"
   xmlns="http://www.w3.org/2000/svg"
   xmlns:svg="http://www.w3.org/2000/svg">
  <defs
     id="defs1" />
  <sodipodi:namedview
     id="namedview1"
     pagecolor="#ffffff"
     bordercolor="#000000"
     borderopacity="0.25"
     inkscape:showpageshadow="2"
     inkscape:pageopacity="0.0"
     inkscape:pagecheckerboard="0"
     inkscape:deskcolor="#d1d1d1"
     showgrid="false"
     inkscape:zoom="0.5"
     inkscape:cx="678"
     inkscape:cy="325"
     inkscape:window-width="1366"
     inkscape:window-height="697"
     inkscape:window-x="-8"
     inkscape:window-y="-8"
     inkscape:window-maximized="1"
     inkscape:current-layer="g1" />
  <g
     inkscape:groupmode="layer"
     inkscape:label="Image"
     id="g1"
     style="display:inline">
    <path
       style="fill:#452c50;fill-opacity:1"
       d="m 116.69743,362.50078 c -15.93244,-4.38035 -29.43297,-20.19354 -31.795542,-37.24216 -0.598367,-4.3179 -0.86591,-44.4291 -0.689725,-103.40642 0.287721,-96.31333 0.288719,-96.35453 2.473887,-102.13559 4.799675,-12.69798 14.66387,-22.792957 27.33677,-27.976361 L 119.5,89.5 297.45083,89.236445 c 114.3771,-0.169399 179.86492,0.09028 183.30859,0.726879 17.70689,3.273295 32.90742,18.604176 36.16026,36.470336 1.44763,7.9511 1.5026,192.06668 0.0596,199.67552 -3.12606,16.48367 -16.01224,31.04082 -31.7922,35.91475 -6.27549,1.9383 -9.8119,1.97436 -185.04243,1.88665 -144.68768,-0.0724 -179.55754,-0.3404 -183.44723,-1.4098 z m 364.87078,-23.17836 c 5.50058,-2.94429 11.09184,-9.34622 12.39748,-14.195 0.73844,-2.74237 0.98922,-34.0367 0.8038,-100.30667 L 494.5,128.5 l -2.20615,-4.12421 c -2.49533,-4.6648 -7.25421,-9.03367 -12.01173,-11.02733 -2.65909,-1.1143 -33.8295,-1.34465 -179.5,-1.3265 -169.08844,0.0211 -176.44763,0.0971 -180.33793,1.86417 -4.99343,2.26808 -10.73297,8.79666 -12.28363,13.97231 -0.84643,2.82514 -1.15462,29.82644 -1.1386,99.75758 0.0216,94.35102 0.0546,95.95592 2.06207,100.38398 4.12206,9.0923 9.00256,12.22014 20.41597,13.08428 4.4,0.33314 84.5,0.56296 178,0.51071 l 170,-0.095 z M 163.02424,309.39691 c -11.01578,-2.96021 -18.89176,-9.7082 -24.04229,-20.59899 -4.74383,-10.03084 -5.1446,-15.45209 -4.76073,-64.40023 0.33334,-42.50619 0.46437,-45.2305 2.46,-51.14583 5.71758,-16.94778 17.14552,-26.04157 34.9,-27.77172 12.96923,-1.26383 24.85677,2.19533 32.84334,9.55709 9.33797,8.60744 13.52531,20.25482 13.55808,37.71277 L 218,202 h -15 -15 l -0.022,-9.75 c -0.0167,-7.39583 -0.47904,-10.7567 -1.91499,-13.91932 C 183.82286,173.39674 181.59536,172 175.96695,172 c -5.37681,0 -9.57191,4.12586 -10.47066,10.29784 -0.33655,2.31119 -0.47339,24.22716 -0.3041,48.70216 l 0.30781,44.5 2.30023,3.22491 c 5.15387,7.22571 15.40304,6.22282 18.62202,-1.82219 C 187.50804,274.18906 188,269.69181 188,262.47976 V 252 l 5.75,0.005 c 3.1625,0.003 10.025,0.2879 15.25,0.63344 l 9.5,0.62827 -0.63981,13.11656 c -0.69963,14.34301 -2.40395,20.56543 -7.90946,28.87723 -8.62965,13.02839 -28.62932,19.05313 -46.92649,14.13624 z M 248,240.5 V 173 H 235.5 223 v -13 -13 h 40.5 40.5 v 13 13 H 291.5 279 V 240.5 308 H 263.5 248 Z m 66,-13 V 147 l 23.25,0.0174 c 31.50578,0.0235 38.81966,1.7267 49.72551,11.57948 11.30101,10.20979 16.14322,33.88911 11.0235,53.90703 -2.43582,9.52396 -5.78518,15.44509 -12.23452,21.62865 l -4.89222,4.69063 8.99288,27.83842 c 4.94609,15.31114 9.6561,30.08843 10.46668,32.83843 0.81059,2.75 1.79068,5.7875 2.17797,6.75 0.65306,1.62297 -0.454,1.75 -15.25099,1.75 H 371.30365 L 361.905,276.5 352.50635,245 H 348.25317 344 v 31.5 31.5 h -15 -15 z m 45.62417,-8.56011 c 5.68599,-2.75254 8.38462,-8.30159 9.09558,-18.70278 0.7768,-11.36437 -1.03201,-18.78466 -5.7224,-23.47505 -2.70335,-2.70336 -4.70976,-3.81186 -7.1297,-3.93903 -1.85221,-0.0973 -5.28015,-0.27484 -7.61765,-0.39446 L 344,172.21107 V 196.60554 221 h 5.68428 c 3.69574,0 7.17302,-0.72069 9.93989,-2.06011 z M 410,227.5 V 147 h 15.5 15.5 v 67.5 67.5 h 15 15 v 13 13 H 440.5 410 Z m 147.38294,97.75 c 0.28475,-0.9625 1.46448,-6.925 2.62164,-13.25 2.29498,-12.54436 7.15827,-38.05106 15.53935,-81.5 C 585.63748,178.17338 595,128.80024 595,127.89862 595,127.38677 608.12736,127 625.5,127 c 16.775,0 30.50145,0.3375 30.50322,0.75 0.002,0.4125 4.28743,23.25 9.52369,50.75 11.74962,61.70711 14.97037,78.63823 22.01799,115.74628 3.05576,16.08955 5.78856,30.04122 6.0729,31.00372 0.48135,1.62942 -1.00358,1.75 -21.55041,1.75 -20.35841,0 -22.06566,-0.13553 -22.04503,-1.75 0.0123,-0.9625 -1.64725,-12.4375 -3.68789,-25.5 L 642.62424,276 h -18.20371 c -18.05359,0 -18.2081,0.0186 -18.73584,2.25 -0.29267,1.2375 -2.22972,12.7125 -4.30455,25.5 L 597.60771,327 h -20.37124 c -18.93175,0 -20.33466,-0.12366 -19.85353,-1.75 z M 637,242.30096 c 0,-1.70015 -12.31698,-80.84459 -12.63962,-81.21763 -0.19821,-0.22916 -0.53831,-0.22916 -0.75578,0 -0.21747,0.22917 -3.19061,18.41667 -6.60698,40.41667 -3.41637,22 -6.415,40.3375 -6.66362,40.75 -0.24862,0.4125 5.64952,0.75 13.10698,0.75 C 630.89844,243 637,242.68543 637,242.30096 Z M 707,227 V 127 h 20.5 20.5 v 83.5 83.5 h 23 23 V 310.5 327 H 750.5 707 Z m 103,0 V 127 h 20 20 l -10e-5,83.25 -1.1e-4,83.25 22.50011,-0.1724 L 895,293.15519 V 310.0776 327 H 852.5 810 Z"
       id="path1" />
  </g>
</svg>
